<svg id="Layer_1" data-name="Layer 1" xmlns="http://www.w3.org/2000/svg" viewBox="0 0 414.06 230.34"><defs><style>.cls-1{fill:none;}.cls-2{fill:#2c5ba7;}.cls-3{fill:#f3b457;}.cls-4{fill:#ed686f;}.cls-5{fill:#6abfb0;}.cls-6{fill:#f5b455;}.cls-7{fill:#f26622;}</style></defs><path class="cls-1" d="M328.14,145.92a9.88,9.88,0,0,0-3.34-2.63,10.62,10.62,0,0,0-4.7-1,10.87,10.87,0,0,0-5,1.06,11.28,11.28,0,0,0-3.59,2.78,12.75,12.75,0,0,0-2.28,3.94,21.29,21.29,0,0,0-1.11,4.55h22.75a16.16,16.16,0,0,0-.71-4.8A11.75,11.75,0,0,0,328.14,145.92Z"/><path class="cls-2" d="M71.13,153.4A25.18,25.18,0,0,0,64.56,149c-2.6-1.24-5.55-2.48-8.85-3.69-1.89-.67-3.62-1.38-5.21-2.12a23.78,23.78,0,0,1-4.14-2.43,9.81,9.81,0,0,1-2.73-3,7.86,7.86,0,0,1-1-4,7,7,0,0,1,2.88-6q2.88-2.11,8-2.12a35.32,35.32,0,0,1,8.44,1,30.4,30.4,0,0,1,7.53,2.93l3.94-10.31a35.62,35.62,0,0,0-8-3.18,42.33,42.33,0,0,0-11.68-1.47q-11.32,0-17.89,5.41T29.32,135A17,17,0,0,0,35,148.29a23.54,23.54,0,0,0,6,3.9q3.39,1.56,7,2.88t6.47,2.47a26.31,26.31,0,0,1,4.8,2.73,11.26,11.26,0,0,1,3,3.29,8.45,8.45,0,0,1,1.06,4.35,7.7,7.7,0,0,1-3.13,6.57q-3.13,2.33-10,2.32A36.48,36.48,0,0,1,39,175.29a43.11,43.11,0,0,1-7.38-3l-3.74,10.42a30.2,30.2,0,0,0,3.23,1.56A42,42,0,0,0,36,185.9a50.76,50.76,0,0,0,14.3,1.92q12.95,0,19.66-5.2t6.73-14.71a22.5,22.5,0,0,0-1.42-8.44A17.41,17.41,0,0,0,71.13,153.4Z"/><rect class="cls-2" x="88.69" y="133.43" width="12.23" height="52.87"/><path class="cls-2" d="M150.72,170.74q-3.14-4.05-6.46-7.63a69.42,69.42,0,0,0-6.35-6.12q5.64-5.76,11.24-11.83t10.64-11.73H145.34q-1.62,1.92-3.9,4.5t-4.8,5.36c-1.68,1.85-3.4,3.71-5.15,5.56s-3.41,3.59-5,5.21v-46.2l-12.23,2v76.43h12.23V162a47.31,47.31,0,0,1,5.56,4.91q2.83,2.88,5.56,6.11t5.11,6.67q2.37,3.45,4.19,6.58h14.16a84.86,84.86,0,0,0-4.54-7.49Q153.84,174.79,150.72,170.74Z"/><path class="cls-2" d="M210.86,139a16.59,16.59,0,0,0-6.72-4.95,27.35,27.35,0,0,0-10.57-1.77,28.22,28.22,0,0,0-5.3.51,32.89,32.89,0,0,0-4.7,1.21V107.86l-12.24,2v76.43h12.24V144.25a34.28,34.28,0,0,1,3.74-.91,24.89,24.89,0,0,1,4.95-.5,14,14,0,0,1,5.26.86,7.3,7.3,0,0,1,3.38,2.72,12.72,12.72,0,0,1,1.82,4.86,40.13,40.13,0,0,1,.56,7.23v27.8h12.23V156.58a42.51,42.51,0,0,0-1.06-9.9A19.31,19.31,0,0,0,210.86,139Z"/><path class="cls-2" d="M273,162.75q-3.43-5.46-7.83-11.78T256,138.39q-4.69-6.27-9.35-12.08T238,116.25H227.56v70.06H240.1V136.16q4.25,5.06,8.94,11.38t9.25,13q4.56,6.72,8.8,13.34t7.68,12.39h10.82V116.25H273Z"/><path class="cls-2" d="M320,132.12a24.4,24.4,0,0,0-9.1,1.77,22.72,22.72,0,0,0-7.89,5.26,25.81,25.81,0,0,0-5.51,8.74,33.26,33.26,0,0,0-2.07,12.23,35.41,35.41,0,0,0,1.62,11,23.68,23.68,0,0,0,4.95,8.7,22.66,22.66,0,0,0,8.49,5.76,32.51,32.51,0,0,0,12.14,2.07,47.17,47.17,0,0,0,5.35-.3c1.76-.21,3.39-.46,4.91-.76a39,39,0,0,0,4-1,20.16,20.16,0,0,0,2.78-1.06l-1.62-10a34,34,0,0,1-5.81,1.72,38,38,0,0,1-8.14.81q-7.58,0-11.57-3.49t-4.5-9.86H343c.06-.67.11-1.43.15-2.27s0-1.6,0-2.28q0-13.44-6.12-20.22T320,132.12Zm-11.83,22.54a21.29,21.29,0,0,1,1.11-4.55,12.75,12.75,0,0,1,2.28-3.94,11.28,11.28,0,0,1,3.59-2.78,10.87,10.87,0,0,1,5-1.06,10.62,10.62,0,0,1,4.7,1,9.88,9.88,0,0,1,3.34,2.63,11.75,11.75,0,0,1,2.07,3.94,16.16,16.16,0,0,1,.71,4.8Z"/><path class="cls-2" d="M380,176.3a22.47,22.47,0,0,1-5.91.71q-4.86,0-6.88-2.73c-1.34-1.82-2-4.86-2-9.1V143.64H384V133.43H365.22v-16l-12.23,2v45.8a43.14,43.14,0,0,0,.91,9.35,17.59,17.59,0,0,0,3.13,7,14,14,0,0,0,6,4.39,25.62,25.62,0,0,0,9.45,1.52,30.27,30.27,0,0,0,8.09-1,45.61,45.61,0,0,0,5.56-1.87l-2-9.71A38,38,0,0,1,380,176.3Z"/><polygon class="cls-2" points="103.19 79.27 96.15 53.16 89.11 79.27 66.84 85.03 89.11 90.79 96.15 116.9 103.19 90.79 125.46 85.03 103.19 79.27"/><path class="cls-3" d="M73.71,94.06,50.94,87.91c-2.61.75-6,1.81-8.53,2.74-18.17,6.67-34.8,19.88-37.94,39.59a49.46,49.46,0,0,0-.62,8.95c0,1.25.13,3,.27,4.37s.36,2.92.64,4.37a53,53,0,0,0,6,16.57l7.73-4.12a44.36,44.36,0,0,1-4.65-14c-1.84-11.1.53-21.89,8.15-30.55,6.71-7.62,16.11-12.59,25.89-15.71A180.3,180.3,0,0,1,73.71,94.06Z"/><path class="cls-4" d="M49.54,227.09c-.46-1.19-.88-2.37-1.28-3.53S47.44,221.22,47,220H34.47L32,227.09h-4q1.61-4.4,3-8.13t2.74-7.1c.89-2.23,1.78-4.37,2.65-6.41s1.8-4.06,2.76-6.06h3.56q1.44,3,2.76,6.06c.88,2,1.76,4.18,2.66,6.41s1.8,4.61,2.73,7.1,1.94,5.2,3,8.13ZM45.9,216.82c-.86-2.32-1.7-4.56-2.54-6.73s-1.71-4.26-2.62-6.26c-.93,2-1.82,4.08-2.66,6.26s-1.67,4.41-2.49,6.73Z"/><path class="cls-4" d="M85.51,227.09c-.59-1-1.26-2.09-2-3.31S81.91,221.28,81,220s-1.79-2.66-2.73-4-1.89-2.67-2.82-3.94-1.84-2.45-2.72-3.57-1.69-2.11-2.44-3v21.62h-3.8v-27.7H69.6q1.88,2,4,4.66c1.42,1.77,2.84,3.6,4.24,5.48s2.71,3.72,4,5.53,2.29,3.43,3.14,4.84V199.39h3.8v27.7Z"/><path class="cls-4" d="M123.6,227.09c-.58-1-1.26-2.09-2-3.31s-1.57-2.5-2.45-3.82-1.8-2.66-2.74-4-1.89-2.67-2.82-3.94-1.84-2.45-2.72-3.57-1.69-2.11-2.44-3v21.62h-3.79v-27.7h3.07q1.89,2,4,4.66t4.24,5.48q2.1,2.82,4,5.53c1.24,1.81,2.28,3.43,3.13,4.84V199.39h3.8v27.7Z"/><path class="cls-4" d="M142.71,199.39h3.88v27.7h-3.88Z"/><path class="cls-4" d="M184.84,199.39q-1.51,4.41-2.9,8.14t-2.7,7.09q-1.32,3.36-2.61,6.42T174,227.09h-3.64c-.91-2-1.79-4-2.66-6.05s-1.74-4.18-2.64-6.42-1.8-4.6-2.73-7.09-1.9-5.2-2.88-8.14h4.28c1.43,4.21,2.85,8.26,4.23,12.16s2.81,7.54,4.28,10.95q2.19-5.08,4.28-10.93t4.19-12.18Z"/><path class="cls-4" d="M197.67,227.09v-27.7h16.91v3.32h-13V211h11.59v3.23H201.55v9.6h14v3.31Z"/><path class="cls-4" d="M243,215.5c.43.54,1,1.24,1.62,2.1s1.32,1.83,2,2.88,1.38,2.15,2.06,3.3a33.16,33.16,0,0,1,1.73,3.31h-4.23c-.54-1-1.12-2-1.74-3.07s-1.26-2-1.9-3-1.27-1.83-1.9-2.66-1.19-1.54-1.7-2.16c-.34,0-.7,0-1.06,0h-4.57v10.83h-3.88v-27.3a23.23,23.23,0,0,1,3.66-.54c1.34-.09,2.57-.14,3.69-.14,3.89,0,6.86.74,8.9,2.2a7.55,7.55,0,0,1,3.06,6.56,7.66,7.66,0,0,1-1.46,4.71A8.63,8.63,0,0,1,243,215.5Zm-5.88-13c-1.65,0-2.91,0-3.79.12v10.43h2.75a27.84,27.84,0,0,0,3.6-.2,7.91,7.91,0,0,0,2.7-.76,4,4,0,0,0,1.7-1.57,5.3,5.3,0,0,0,.6-2.7,5.13,5.13,0,0,0-.6-2.6,4.47,4.47,0,0,0-1.62-1.64,7.09,7.09,0,0,0-2.4-.84A17.16,17.16,0,0,0,237.16,202.51Z"/><path class="cls-4" d="M270.06,224.34q6.07,0,6.08-4.16a4.17,4.17,0,0,0-.54-2.18,5.27,5.27,0,0,0-1.46-1.56,10.5,10.5,0,0,0-2.1-1.14c-.79-.32-1.62-.64-2.5-1a24.77,24.77,0,0,1-2.88-1.18,10.6,10.6,0,0,1-2.36-1.55,6.66,6.66,0,0,1-1.57-2.14,7.85,7.85,0,0,1,1.89-8.68,10.47,10.47,0,0,1,6.84-2,18.1,18.1,0,0,1,4.58.54,10.62,10.62,0,0,1,3,1.18l-1.24,3.16a11.38,11.38,0,0,0-2.49-1,13.59,13.59,0,0,0-3.86-.5,8.54,8.54,0,0,0-2.08.24,5.33,5.33,0,0,0-1.68.72,3.59,3.59,0,0,0-1.14,1.22,3.45,3.45,0,0,0-.42,1.74,3.73,3.73,0,0,0,.44,1.88,4.6,4.6,0,0,0,1.24,1.34,10.82,10.82,0,0,0,1.86,1.06q1.06.48,2.34,1c1.2.48,2.3.95,3.3,1.43a10.81,10.81,0,0,1,2.59,1.72,6.84,6.84,0,0,1,1.7,2.38,8.34,8.34,0,0,1,.6,3.34,6.53,6.53,0,0,1-2.66,5.6q-2.66,1.95-7.49,1.95a18.87,18.87,0,0,1-3-.22,21,21,0,0,1-2.46-.52,15.21,15.21,0,0,1-1.85-.63c-.52-.23-.93-.42-1.22-.58l1.16-3.2a18.3,18.3,0,0,0,2.79,1.16A14.62,14.62,0,0,0,270.06,224.34Z"/><path class="cls-4" d="M312.39,227.09c-.45-1.19-.88-2.37-1.28-3.53s-.81-2.34-1.24-3.54H297.32l-2.52,7.07h-4q1.59-4.4,3-8.13t2.74-7.1q1.33-3.35,2.66-6.41t2.76-6.06h3.56c1,2,1.87,4,2.75,6.06s1.77,4.18,2.66,6.41,1.81,4.61,2.74,7.1,1.93,5.2,3,8.13Zm-3.64-10.27c-.85-2.32-1.7-4.56-2.53-6.73s-1.72-4.26-2.62-6.26c-.94,2-1.82,4.08-2.66,6.26s-1.67,4.41-2.5,6.73Z"/><path class="cls-4" d="M342.93,215.5l1.62,2.1c.65.87,1.32,1.83,2,2.88s1.38,2.15,2.06,3.3a35.39,35.39,0,0,1,1.73,3.31h-4.23c-.54-1-1.12-2-1.74-3.07s-1.26-2-1.9-3-1.27-1.83-1.9-2.66-1.19-1.54-1.7-2.16c-.34,0-.7,0-1.06,0h-4.57v10.83h-3.88v-27.3a23.23,23.23,0,0,1,3.66-.54c1.34-.09,2.57-.14,3.69-.14,3.89,0,6.86.74,8.9,2.2a7.55,7.55,0,0,1,3.06,6.56,7.66,7.66,0,0,1-1.46,4.71A8.63,8.63,0,0,1,342.93,215.5Zm-5.88-13c-1.65,0-2.91,0-3.79.12v10.43H336a27.84,27.84,0,0,0,3.6-.2,7.91,7.91,0,0,0,2.7-.76,4,4,0,0,0,1.7-1.57,5.3,5.3,0,0,0,.6-2.7,5.13,5.13,0,0,0-.6-2.6,4.47,4.47,0,0,0-1.62-1.64,7.09,7.09,0,0,0-2.4-.84A17.16,17.16,0,0,0,337.05,202.51Z"/><path class="cls-4" d="M369.35,227.09V216q-2.76-4.28-5.19-8.43t-4.6-8.16h4.56q1.51,3.29,3.39,6.66c1.25,2.25,2.55,4.42,3.88,6.49,1.31-2.07,2.58-4.24,3.84-6.49s2.4-4.47,3.43-6.66H383q-2.16,4-4.6,8.14t-5.15,8.37v11.19Z"/><path class="cls-1" d="M266.38,40.68c-6.77,0-17.81,7.07-24.72,13.33a165.1,165.1,0,0,0,18,8c6.92-7.23,11.54-13.49,11.54-16.88C271.17,41.3,269.24,40.68,266.38,40.68Z"/><path class="cls-1" d="M262.29,100.86c0,2.39,2.62,2.78,4.86,2.78,11.85,0,25.25-7.15,34.15-15.8-7.51-1.59-15-3.36-22.37-5.38C270.92,87.7,262.29,95.13,262.29,100.86Z"/><path class="cls-1" d="M255.56,75.26a214.87,214.87,0,0,1-29.43,22.66,65.66,65.66,0,0,1,15.38-1.7c1.15,0,2.16.08,3,.08a34.2,34.2,0,0,1,13.78,3.19c1.75-6.26,10.12-13,18.26-17.7-1.95-.55-3.91-1.1-5.85-1.68C265.73,78.61,260.64,77,255.56,75.26Z"/><path class="cls-3" d="M409.59,130.24c-3.14-19.71-19.77-32.92-37.94-39.59-13.19-4.84-27.25-6.83-41.09-9.38q-7.51-1.39-15-3a30.88,30.88,0,0,1-6.19,11.24c8.83,1.72,17.71,3.22,26.6,4.59,10.16,1.55,20.4,3,30.17,6.08s19.17,8.09,25.89,15.71c7.62,8.66,10,19.45,8.15,30.55a44.36,44.36,0,0,1-4.65,14l7.73,4.12a53,53,0,0,0,6-16.57c.28-1.45.48-2.91.63-4.37s.25-3.12.28-4.37A49.46,49.46,0,0,0,409.59,130.24Z"/><path class="cls-3" d="M230.38,58.76a29,29,0,0,1,6.23-7.52c-1.88-1.08-3.79-2.21-5.68-3.43C222.81,42.69,212,32.39,207,24.68c-5,7.71-15.78,18-23.9,23.13-2.27,1.47-4.58,2.82-6.82,4.09s-3.43,1.89-3.43,1.89l0,0A195.59,195.59,0,0,1,141.49,66.6c-8.38,2.74-19.61,5.92-28.14,8.15L139,81.36c1.45-.41,2.92-.81,4.37-1.25C163.83,74,186,66.27,202.19,52a62.53,62.53,0,0,0,4.84-4.8,62.53,62.53,0,0,0,4.84,4.8,95.93,95.93,0,0,0,18.22,12.4,3.43,3.43,0,0,1-.71-2.18A8.08,8.08,0,0,1,230.38,58.76Z"/><path class="cls-4" d="M241.18,53.79l0,0c.15.09.31.16.46.24,6.91-6.26,18-13.33,24.72-13.33,2.86,0,4.79.62,4.79,4.48,0,3.39-4.62,9.65-11.54,16.88q3.15,1.2,6.33,2.32c5-6.16,8.46-12.27,8.46-17.5,0-5.49-3-8.35-9-8.35-8.95,0-21,5.75-28.77,12.73l1.14.66C239.87,53.1,241.18,53.79,241.18,53.79Z"/><path class="cls-4" d="M232.78,65.82c-.91-.45-1.8-.93-2.69-1.41A4,4,0,0,0,232.78,65.82Z"/><path class="cls-4" d="M244.52,96.3c-.85,0-1.86-.08-3-.08a65.66,65.66,0,0,0-15.38,1.7,214.87,214.87,0,0,0,29.43-22.66q-3.52-1.22-7-2.55c-17.46,15.7-39.93,31.63-47.82,31.63-1.32,0,.07,6.33,2.08,6.33,1.62,0,19.93-11.66,45.27-11.66a28.35,28.35,0,0,1,10,1.61,9.1,9.1,0,0,1,.24-1.13A34.2,34.2,0,0,0,244.52,96.3Z"/><path class="cls-4" d="M235.09,65.63a18.39,18.39,0,0,0,6.26-3.71c-1.23.62-5.95,2.78-5.95.31,0-1.68,2.53-4.83,6.26-8.22-.15-.08-.31-.15-.46-.24l0,0s-1.31-.69-3.43-1.89l-1.14-.66a29,29,0,0,0-6.23,7.52,8.08,8.08,0,0,0-1,3.47,3.43,3.43,0,0,0,.71,2.18c.89.48,1.78,1,2.69,1.41A5.49,5.49,0,0,0,235.09,65.63Z"/><path class="cls-4" d="M266,64.36q-3.18-1.12-6.33-2.32c-3.26,3.41-7,7-11.09,10.67q3.5,1.33,7,2.55A113.23,113.23,0,0,0,266,64.36Z"/><path class="cls-4" d="M316.37,72.74c0-8-6.88-13.06-15.38-13.06a32.41,32.41,0,0,0-8.65,1.47c3.63-5.25,8.42-12.75,11.12-17.31,3.09,2.63,8.5,4,15.3,4,6.26,0,13.13-2.86,13.13-4.71,0-2.09-2.78-4.79-4.71-5.25.62,2.08-5.1,5.48-14.75,5.48-8-.15-10.12-2.47-11.05-3.17-.54-.38-1.47-.46-1.47.55,0,2.31-16.92,23.94-19.85,23.94-1.09,0,1.46,3.79,4.71,3.56,1.47-.62,8.5-6.49,17.3-6.8,6.11,0,9.2,4,9.2,8.5a16.57,16.57,0,0,1-1.75,6.91q3,.7,6.06,1.38A20.38,20.38,0,0,0,316.37,72.74Z"/><path class="cls-4" d="M267.15,103.64c-2.24,0-4.86-.39-4.86-2.78,0-5.73,8.63-13.16,16.64-18.4-.79-.21-1.58-.45-2.37-.67-8.14,4.72-16.51,11.44-18.26,17.7,2.8,1.39,4.34,2.88,4.53,3.69a24,24,0,0,0-4.77-2.56,7.7,7.7,0,0,0-.1,1.17c0,5,5.41,7.57,11,7.57,13.76,0,31-8.51,40.46-19.87q-4-.8-8.09-1.65C292.4,96.49,279,103.64,267.15,103.64Z"/><path class="cls-4" d="M309.52,76.87a39.17,39.17,0,0,1-8.22,11q4,.85,8.09,1.65a30.88,30.88,0,0,0,6.19-11.24Q312.54,77.57,309.52,76.87Z"/><path class="cls-4" d="M291.8,75.91c.23-.39-1.16-.24-1.78-.08-3.21.75-8.29,3-13.46,6,.79.22,1.58.46,2.37.67,5.06-3.31,9.88-5.75,12.1-6.32C291.18,76.06,291.64,76,291.8,75.91Z"/><path class="cls-4" d="M258.3,99.49a9.1,9.1,0,0,0-.24,1.13,24,24,0,0,1,4.77,2.56C262.64,102.37,261.1,100.88,258.3,99.49Z"/><path class="cls-4" d="M365.67,51.38c.54,0,.36-.05,0-.14a69.1,69.1,0,0,0-8.27-1.12l-.62.77C359.67,51,362.62,51.11,365.67,51.38Z"/><path class="cls-4" d="M327.7,54.12a2.76,2.76,0,0,0,2.38,2.3c-1.17-.68,1.49-2.84,5.77-3.69-1.67,2.2-3,4.19-4.19,6-5.54,8.56-7.57,13-7.57,14.33a1,1,0,0,0,.14.67,4.9,4.9,0,0,0,1.62,1.8,1.55,1.55,0,0,0,1.44.18c2.7-1,10.54-9.18,12.75-11.71a.21.21,0,0,0-.32-.27c-2.66,2.44-10.13,9.78-12.07,9.55,1.08-2.88,4.46-8.6,8.38-14.55,1.8-2.65,3.29-4.91,5-7a87,87,0,0,1,11.2-.89l.76-1c-3.62-.15-7.26-.13-10.47,0,2-2.57,4.64-6.17,6.08-5.5.86.5-.94-2.11-3.47-2a3.37,3.37,0,0,0-1.66.9c-1.13.9-2.39,2.35-5.9,6.94C332.47,50.84,327.52,52.1,327.7,54.12Z"/><path class="cls-4" d="M340.58,69.26c-1.35,3-1.44,4.41-1.31,4.77a5,5,0,0,0,1.62,1.8,1.61,1.61,0,0,0,1.49.23c-1-.14-1.13-.77-.72-1.67a14.46,14.46,0,0,1,2.79-3.87s1.8-1.89,2.25-2.3a41.57,41.57,0,0,1,9.73-7c-2.34,2.11-7.16,9.32-7.16,11.89a3.81,3.81,0,0,0,1.94,2.7,1.15,1.15,0,0,0,.67,0,6.73,6.73,0,0,0,1.53-.68c3.38-2,8.74-7.61,12-11.08.13-.13-.09-.49-.41-.27-2.84,2.66-9.23,8.92-12,9.69.14-2.12,7-11.62,8.2-12.52.54-.5-.9-2.93-1.93-2.93-1.54,0-9.28,5.4-14.42,10.85a116.39,116.39,0,0,1,12-18c-1.55,0-3.09,0-4.6,0C348.05,56.49,342.76,64.28,340.58,69.26Z"/><path class="cls-4" d="M360,47.1c1.71-1.94,3.06-2.89,4-2.44s-.9-2.16-3.42-2.16a3.47,3.47,0,0,0-1.71.81,39,39,0,0,0-5.46,6l-.38.51c1.5.06,3,.15,4.46.26C358.31,49,359.17,48,360,47.1Z"/><path class="cls-4" d="M356.78,50.89l.62-.77c-1.46-.11-3-.2-4.46-.26l-.76,1C353.69,50.86,355.23,50.86,356.78,50.89Z"/><polygon class="cls-4" points="118.24 43.11 113.35 24.98 108.46 43.11 93 47.11 108.46 51.11 113.35 69.24 118.24 51.11 133.7 47.11 118.24 43.11"/><polygon class="cls-5" points="84.59 35.81 81.34 23.78 78.1 35.81 67.83 38.47 78.1 41.13 81.34 53.16 84.59 41.13 94.86 38.47 84.59 35.81"/><polygon class="cls-6" points="73.61 59.97 70.37 47.93 67.12 59.97 56.85 62.62 67.12 65.28 70.37 77.32 73.61 65.28 83.88 62.62 73.61 59.97"/><polygon class="cls-7" points="100.64 16.86 98.16 7.64 95.67 16.86 87.81 18.89 95.67 20.93 98.16 30.15 100.64 20.93 108.5 18.89 100.64 16.86"/></svg>